<svg version="1.1" id="Layer_1" xmlns="http://www.w3.org/2000/svg" xmlns:xlink="http://www.w3.org/1999/xlink" x="0px" y="0px"
	 width="100%" viewBox="0 0 500 500" enable-background="new 0 0 500 500" xml:space="preserve">
<path fill="#F9FAFB" opacity="1.000000" stroke="none" 
	d="
M284.000000,501.000000 
	C189.333359,501.000000 95.166710,501.000000 1.000051,501.000000 
	C1.000034,334.333405 1.000034,167.666794 1.000017,1.000140 
	C167.666565,1.000093 334.333130,1.000093 500.999756,1.000047 
	C500.999847,167.666519 500.999847,334.333038 500.999939,500.999786 
	C428.833344,501.000000 356.666656,501.000000 284.000000,501.000000 
M364.500000,116.000305 
	C266.175079,116.024139 167.850174,116.046448 69.525291,116.108170 
	C68.945587,116.108536 68.359825,116.648079 67.791405,116.962105 
	C67.657387,117.036140 67.557396,117.204948 67.487129,117.351860 
	C67.417473,117.497513 67.405098,117.670563 67.296341,118.137611 
	C67.497070,118.488548 67.754463,119.082298 68.134842,119.582535 
	C77.564011,131.982849 86.587975,144.727524 96.643166,156.598511 
	C100.918755,161.646194 100.656540,165.955078 99.381638,171.540771 
	C93.450905,197.524918 87.757889,223.563797 82.073341,249.603516 
	C73.565376,288.576691 65.134514,327.566681 56.674038,366.550201 
	C55.394577,372.445618 54.132202,378.344757 52.908070,384.027924 
	C53.918026,384.547089 54.207554,384.825897 54.497845,384.826691 
	C79.991806,384.896332 105.486290,385.006134 130.978607,384.821075 
	C132.319763,384.811340 134.493500,382.479401 134.847900,380.906036 
	C141.358398,352.001953 147.649536,323.048431 153.988464,294.105682 
	C156.093979,284.492218 158.203278,274.879547 160.310852,265.266541 
	C160.956573,264.907104 161.602280,264.547699 162.248001,264.188293 
	C164.769455,267.237457 167.363983,270.229614 169.796661,273.348053 
	C174.384888,279.229645 178.412048,285.910614 188.377396,283.910797 
	C180.956024,317.986847 173.742249,351.109741 166.361359,385.000000 
	C169.571503,385.000000 171.367493,385.000000 173.163467,385.000000 
	C213.660324,385.000000 254.157166,385.000000 294.654022,385.000000 
	C324.651672,385.000000 354.649567,384.945221 384.646729,385.065948 
	C388.612213,385.081909 390.716949,384.303864 391.180695,379.783752 
	C391.717926,374.547302 393.275726,369.413910 394.414307,364.240997 
	C401.530334,331.910461 408.662872,299.583527 415.758118,267.248444 
	C416.469910,264.004639 416.162476,261.059845 413.265198,258.699341 
	C409.924438,255.977478 406.696014,253.093842 403.620667,250.074799 
	C396.009766,242.603195 388.489166,235.038956 380.984070,227.460648 
	C377.912781,224.359482 374.501770,222.824203 369.930237,222.905884 
	C355.602600,223.161896 341.267487,223.000000 326.935272,223.000000 
	C324.151306,223.000000 321.367371,223.000000 318.907349,223.000000 
	C318.441162,222.069366 318.119812,221.739502 318.173218,221.489761 
	C320.767334,209.358002 323.335480,197.219666 326.133606,185.134628 
	C326.343658,184.227280 328.203827,183.133057 329.325867,183.099686 
	C335.819611,182.906540 342.328796,182.856674 348.814880,183.151901 
	C349.905121,183.201538 351.999786,185.578674 351.772675,186.187592 
	C350.376556,189.931213 352.722382,191.264511 355.228607,192.806534 
	C368.803162,201.158493 382.339111,209.573090 395.906616,217.936508 
	C404.617737,223.306320 413.360291,228.625122 422.491730,234.213394 
	C423.127319,232.405624 423.688049,231.220474 423.961639,229.972351 
	C429.774506,203.455597 435.482178,176.915512 441.394257,150.421005 
	C442.832275,143.976593 443.977753,137.829224 440.359344,131.636322 
	C434.532043,121.662918 426.254456,116.012383 414.496185,116.003639 
	C398.164124,115.991501 381.832062,116.000412 364.500000,116.000305 
z"/>
<path fill="#FFFFFF" opacity="1.000000" stroke="none" 
	d="
M365.000000,116.000305 
	C381.832062,116.000412 398.164124,115.991501 414.496185,116.003639 
	C426.254456,116.012383 434.532043,121.662918 440.359344,131.636322 
	C443.977753,137.829224 442.832275,143.976593 441.394257,150.421005 
	C435.482178,176.915512 429.774506,203.455597 423.961639,229.972351 
	C423.688049,231.220474 423.127319,232.405624 422.491730,234.213394 
	C413.360291,228.625122 404.617737,223.306320 395.906616,217.936508 
	C382.339111,209.573090 368.803162,201.158493 355.228607,192.806534 
	C352.722382,191.264511 350.376556,189.931213 351.772675,186.187592 
	C351.999786,185.578674 349.905121,183.201538 348.814880,183.151901 
	C342.328796,182.856674 335.819611,182.906540 329.325867,183.099686 
	C328.203827,183.133057 326.343658,184.227280 326.133606,185.134628 
	C323.335480,197.219666 320.767334,209.358002 318.173218,221.489761 
	C318.119812,221.739502 318.441162,222.069366 318.907349,223.000000 
	C321.367371,223.000000 324.151306,223.000000 326.935272,223.000000 
	C341.267487,223.000000 355.602600,223.161896 369.930237,222.905884 
	C374.501770,222.824203 377.912781,224.359482 380.984070,227.460648 
	C388.489166,235.038956 396.009766,242.603195 403.620667,250.074799 
	C406.696014,253.093842 409.924438,255.977478 413.265198,258.699341 
	C416.162476,261.059845 416.469910,264.004639 415.758118,267.248444 
	C408.662872,299.583527 401.530334,331.910461 394.414307,364.240997 
	C393.275726,369.413910 391.717926,374.547302 391.180695,379.783752 
	C390.716949,384.303864 388.612213,385.081909 384.646729,385.065948 
	C354.649567,384.945221 324.651672,385.000000 294.654022,385.000000 
	C254.157166,385.000000 213.660324,385.000000 173.163467,385.000000 
	C171.367493,385.000000 169.571503,385.000000 166.361359,385.000000 
	C173.742249,351.109741 180.956024,317.986847 188.377396,283.910797 
	C178.412048,285.910614 174.384888,279.229645 169.796661,273.348053 
	C167.363983,270.229614 164.769455,267.237457 162.248001,264.188293 
	C161.602280,264.547699 160.956573,264.907104 160.310852,265.266541 
	C158.203278,274.879547 156.093979,284.492218 153.988464,294.105682 
	C147.649536,323.048431 141.358398,352.001953 134.847900,380.906036 
	C134.493500,382.479401 132.319763,384.811340 130.978607,384.821075 
	C105.486290,385.006134 79.991806,384.896332 54.497845,384.826691 
	C54.207554,384.825897 53.918026,384.547089 52.908070,384.027924 
	C54.132202,378.344757 55.394577,372.445618 56.674038,366.550201 
	C65.134514,327.566681 73.565376,288.576691 82.073341,249.603516 
	C87.757889,223.563797 93.450905,197.524918 99.381638,171.540771 
	C100.656540,165.955078 100.918755,161.646194 96.643166,156.598511 
	C86.587975,144.727524 77.564011,131.982849 68.134842,119.582535 
	C67.754463,119.082298 67.497070,118.488548 67.296341,118.137611 
	C67.405098,117.670563 67.417473,117.497513 67.487129,117.351860 
	C67.557396,117.204948 67.657387,117.036140 67.791405,116.962105 
	C68.359825,116.648079 68.945587,116.108536 69.525291,116.108170 
	C167.850174,116.046448 266.175079,116.024139 365.000000,116.000305 
M263.939026,222.199860 
	C278.731964,222.199860 293.524902,222.199860 308.503479,222.199860 
	C312.146301,205.856476 315.675598,190.022537 319.168945,174.349777 
	C334.064270,174.349777 348.470703,174.349777 363.281158,174.349777 
	C362.905487,176.486526 362.908936,178.334229 362.245544,179.899292 
	C360.022919,185.142914 362.459259,187.616806 366.921265,190.084473 
	C374.704163,194.388748 382.068848,199.444656 389.654877,204.110672 
	C398.449371,209.519974 407.293488,214.848541 416.703156,220.569092 
	C422.239441,195.128342 427.739502,170.405182 432.956390,145.622391 
	C435.186920,135.026291 427.181152,125.729446 416.226379,125.603676 
	C411.394684,125.548203 406.562744,125.481972 401.730896,125.482315 
	C358.402557,125.485382 315.074005,125.569397 271.746307,125.405907 
	C267.634003,125.390388 266.070282,127.337349 265.328857,130.557007 
	C262.489471,142.887329 259.718506,155.234802 257.076324,167.608826 
	C253.618073,183.804596 250.464508,200.066620 246.892136,216.236572 
	C242.097015,237.941177 236.944092,259.566528 232.096878,281.259888 
	C226.717102,305.336761 221.458344,329.441101 216.287720,353.563690 
	C215.625793,356.651794 214.888855,360.213654 215.787399,363.048737 
	C217.944077,369.853546 224.016586,376.420410 233.555725,376.339691 
	C281.882141,375.930725 330.213898,376.153442 378.543762,376.141693 
	C379.846985,376.141357 381.150146,375.992920 382.767822,375.894409 
	C390.540253,340.359009 398.222412,304.963074 406.112854,269.613647 
	C406.845123,266.333008 405.994446,264.455719 403.741333,262.308197 
	C394.091888,253.111038 384.682068,243.661179 374.964783,234.537903 
	C373.369110,233.039764 370.676727,231.975830 368.482758,231.960922 
	C342.652466,231.785538 316.820557,231.843918 290.989075,231.863434 
	C289.783173,231.864349 288.577362,232.079346 286.608276,232.267609 
	C298.767426,245.482254 310.387848,258.070374 321.957581,270.704956 
	C326.826782,276.022308 330.728699,282.980194 339.779572,279.824890 
	C339.964661,281.132568 340.176208,281.647034 340.081055,282.096588 
	C337.013733,296.583099 333.988525,311.079803 330.678619,325.511108 
	C330.432556,326.583862 328.132141,327.845123 326.751556,327.888153 
	C319.259369,328.121521 311.756073,327.999390 304.256622,327.999573 
	C298.177521,327.999695 292.098389,327.999603 285.810913,327.999603 
	C286.029266,326.137146 286.067688,324.969025 286.312592,323.845886 
	C290.353088,305.316101 294.335175,286.772736 298.555054,268.283722 
	C299.350586,264.798004 298.697357,262.440643 296.238647,259.829285 
	C285.054321,247.950516 274.091736,235.862915 263.034485,223.358353 
	C263.029053,223.030212 263.024353,222.702057 263.939026,222.199860 
M108.499329,376.170105 
	C114.477646,376.170105 120.455963,376.170105 126.672089,376.170105 
	C134.818542,338.842834 142.773636,301.734253 151.159088,264.723175 
	C152.333572,259.539307 150.943497,256.540405 147.534363,253.037598 
	C136.231827,241.424622 125.253990,229.495651 113.456886,216.949036 
	C130.151718,216.949036 145.867599,216.949036 161.467468,216.949036 
	C168.124115,186.327927 174.678879,156.175461 181.278641,125.815979 
	C148.792633,125.815979 116.926125,125.815979 84.550156,125.815979 
	C85.435616,127.527245 85.918915,128.912827 86.764374,130.022461 
	C92.558441,137.626923 98.586739,145.058609 104.201004,152.791779 
	C106.667252,156.188812 111.199646,158.806152 110.060326,164.010132 
	C107.645180,175.041611 105.023041,186.027603 102.521843,197.040466 
	C99.674324,209.578201 96.781563,222.106583 94.061882,234.672211 
	C90.525726,251.010254 87.221863,267.398682 83.662231,283.731476 
	C81.262405,294.742645 78.484680,305.671356 76.072609,316.680023 
	C73.141617,330.057098 70.412544,343.478455 67.605812,356.882660 
	C66.285141,363.189850 64.987129,369.501770 63.604492,376.170105 
	C78.871780,376.170105 93.185638,376.170105 108.499329,376.170105 
M213.513916,125.486496 
	C208.588303,125.486496 203.662689,125.486496 197.858185,125.486496 
	C199.273560,127.737343 200.018433,129.174911 200.994324,130.433350 
	C208.022369,139.496109 215.230835,148.423874 222.043579,157.644547 
	C223.392395,159.470078 224.163940,162.564011 223.700592,164.755661 
	C219.333420,185.411896 214.640457,205.999252 209.962708,226.959503 
	C186.448166,226.959503 163.227783,226.959503 138.421249,226.959503 
	C146.316055,235.565033 153.288055,243.144913 160.237320,250.745560 
	C166.332001,257.411499 172.512115,264.004486 178.429901,270.824554 
	C180.989670,273.774567 183.580765,275.548004 187.728149,275.090302 
	C191.460190,274.678467 195.273560,275.003510 199.194275,275.003510 
	C191.808533,308.851593 184.524933,342.231567 177.160080,375.983887 
	C189.544388,375.983887 200.972595,375.983887 213.003326,375.983887 
	C207.920349,369.853973 205.478485,363.279419 207.078049,355.668579 
	C209.033371,346.364990 210.994278,337.062103 213.034561,327.776917 
	C221.011932,291.472351 229.008301,255.171951 237.023895,218.875809 
	C242.318909,194.898987 247.671127,170.934814 252.970856,146.959030 
	C254.513443,139.980438 255.963287,132.981323 257.563477,125.486542 
	C242.774734,125.486542 228.641846,125.486542 213.513916,125.486496 
M204.501862,149.001801 
	C199.934540,143.182327 195.367218,137.362839 190.223877,130.809448 
	C189.204193,133.316742 188.608810,134.332901 188.372818,135.426620 
	C182.718750,161.630005 177.134445,187.848495 171.444672,214.044083 
	C170.653046,217.688751 172.734634,217.985931 175.324005,217.991837 
	C182.655472,218.008591 189.994019,217.807404 197.315811,218.074615 
	C201.436218,218.224991 203.280350,216.690857 204.110245,212.671982 
	C206.921356,199.058990 209.713943,185.427490 213.142624,171.963226 
	C214.736511,165.704086 215.045578,160.517746 209.680679,155.926453 
	C207.725098,154.252884 206.534531,151.685394 204.501862,149.001801 
M302.945068,290.368683 
	C300.902161,299.654816 298.859283,308.940979 296.646484,318.999298 
	C304.737701,318.999298 311.862671,318.870026 318.979492,319.055054 
	C322.420013,319.144531 323.637360,317.644714 324.071472,314.443665 
	C324.581573,310.682159 325.414520,306.937897 326.436615,303.278076 
	C328.406616,296.224243 330.684631,289.236908 322.174530,284.581329 
	C321.529236,284.228302 321.321167,283.155731 320.749390,282.575836 
	C316.605652,278.373230 312.420654,274.211304 307.475342,269.262604 
	C305.826385,276.724701 304.412476,283.122986 302.945068,290.368683 
z"/>
<path fill="#339CA9" opacity="1.000000" stroke="none" 
	d="
M263.049408,223.850433 
	C274.091736,235.862915 285.054321,247.950516 296.238647,259.829285 
	C298.697357,262.440643 299.350586,264.798004 298.555054,268.283722 
	C294.335175,286.772736 290.353088,305.316101 286.312592,323.845886 
	C286.067688,324.969025 286.029266,326.137146 285.810913,327.999603 
	C292.098389,327.999603 298.177521,327.999695 304.256622,327.999573 
	C311.756073,327.999390 319.259369,328.121521 326.751556,327.888153 
	C328.132141,327.845123 330.432556,326.583862 330.678619,325.511108 
	C333.988525,311.079803 337.013733,296.583099 340.081055,282.096588 
	C340.176208,281.647034 339.964661,281.132568 339.779572,279.824890 
	C330.728699,282.980194 326.826782,276.022308 321.957581,270.704956 
	C310.387848,258.070374 298.767426,245.482254 286.608276,232.267609 
	C288.577362,232.079346 289.783173,231.864349 290.989075,231.863434 
	C316.820557,231.843918 342.652466,231.785538 368.482758,231.960922 
	C370.676727,231.975830 373.369110,233.039764 374.964783,234.537903 
	C384.682068,243.661179 394.091888,253.111038 403.741333,262.308197 
	C405.994446,264.455719 406.845123,266.333008 406.112854,269.613647 
	C398.222412,304.963074 390.540253,340.359009 382.767822,375.894409 
	C381.150146,375.992920 379.846985,376.141357 378.543762,376.141693 
	C330.213898,376.153442 281.882141,375.930725 233.555725,376.339691 
	C224.016586,376.420410 217.944077,369.853546 215.787399,363.048737 
	C214.888855,360.213654 215.625793,356.651794 216.287720,353.563690 
	C221.458344,329.441101 226.717102,305.336761 232.096878,281.259888 
	C236.944092,259.566528 242.097015,237.941177 246.892136,216.236572 
	C250.464508,200.066620 253.618073,183.804596 257.076324,167.608826 
	C259.718506,155.234802 262.489471,142.887329 265.328857,130.557007 
	C266.070282,127.337349 267.634003,125.390388 271.746307,125.405907 
	C315.074005,125.569397 358.402557,125.485382 401.730896,125.482315 
	C406.562744,125.481972 411.394684,125.548203 416.226379,125.603676 
	C427.181152,125.729446 435.186920,135.026291 432.956390,145.622391 
	C427.739502,170.405182 422.239441,195.128342 416.703156,220.569092 
	C407.293488,214.848541 398.449371,209.519974 389.654877,204.110672 
	C382.068848,199.444656 374.704163,194.388748 366.921265,190.084473 
	C362.459259,187.616806 360.022919,185.142914 362.245544,179.899292 
	C362.908936,178.334229 362.905487,176.486526 363.281158,174.349777 
	C348.470703,174.349777 334.064270,174.349777 319.168945,174.349777 
	C315.675598,190.022537 312.146301,205.856476 308.503479,222.199860 
	C293.524902,222.199860 278.731964,222.199860 263.225586,222.257553 
	C262.691223,222.826981 262.870331,223.338699 263.049408,223.850433 
z"/>
<path fill="#010101" opacity="1.000000" stroke="none" 
	d="
M107.999413,376.170105 
	C93.185638,376.170105 78.871780,376.170105 63.604492,376.170105 
	C64.987129,369.501770 66.285141,363.189850 67.605812,356.882660 
	C70.412544,343.478455 73.141617,330.057098 76.072609,316.680023 
	C78.484680,305.671356 81.262405,294.742645 83.662231,283.731476 
	C87.221863,267.398682 90.525726,251.010254 94.061882,234.672211 
	C96.781563,222.106583 99.674324,209.578201 102.521843,197.040466 
	C105.023041,186.027603 107.645180,175.041611 110.060326,164.010132 
	C111.199646,158.806152 106.667252,156.188812 104.201004,152.791779 
	C98.586739,145.058609 92.558441,137.626923 86.764374,130.022461 
	C85.918915,128.912827 85.435616,127.527245 84.550156,125.815979 
	C116.926125,125.815979 148.792633,125.815979 181.278641,125.815979 
	C174.678879,156.175461 168.124115,186.327927 161.467468,216.949036 
	C145.867599,216.949036 130.151718,216.949036 113.456886,216.949036 
	C125.253990,229.495651 136.231827,241.424622 147.534363,253.037598 
	C150.943497,256.540405 152.333572,259.539307 151.159088,264.723175 
	C142.773636,301.734253 134.818542,338.842834 126.672089,376.170105 
	C120.455963,376.170105 114.477646,376.170105 107.999413,376.170105 
z"/>
<path fill="#020202" opacity="1.000000" stroke="none" 
	d="
M214.011444,125.486519 
	C228.641846,125.486542 242.774734,125.486542 257.563477,125.486542 
	C255.963287,132.981323 254.513443,139.980438 252.970856,146.959030 
	C247.671127,170.934814 242.318909,194.898987 237.023895,218.875809 
	C229.008301,255.171951 221.011932,291.472351 213.034561,327.776917 
	C210.994278,337.062103 209.033371,346.364990 207.078049,355.668579 
	C205.478485,363.279419 207.920349,369.853973 213.003326,375.983887 
	C200.972595,375.983887 189.544388,375.983887 177.160080,375.983887 
	C184.524933,342.231567 191.808533,308.851593 199.194275,275.003510 
	C195.273560,275.003510 191.460190,274.678467 187.728149,275.090302 
	C183.580765,275.548004 180.989670,273.774567 178.429901,270.824554 
	C172.512115,264.004486 166.332001,257.411499 160.237320,250.745560 
	C153.288055,243.144913 146.316055,235.565033 138.421249,226.959503 
	C163.227783,226.959503 186.448166,226.959503 209.962708,226.959503 
	C214.640457,205.999252 219.333420,185.411896 223.700592,164.755661 
	C224.163940,162.564011 223.392395,159.470078 222.043579,157.644547 
	C215.230835,148.423874 208.022369,139.496109 200.994324,130.433350 
	C200.018433,129.174911 199.273560,127.737343 197.858185,125.486496 
	C203.662689,125.486496 208.588303,125.486496 214.011444,125.486519 
z"/>
<path fill="#F9FAFB" opacity="1.000000" stroke="none" 
	d="
M204.748383,149.263763 
	C206.534531,151.685394 207.725098,154.252884 209.680679,155.926453 
	C215.045578,160.517746 214.736511,165.704086 213.142624,171.963226 
	C209.713943,185.427490 206.921356,199.058990 204.110245,212.671982 
	C203.280350,216.690857 201.436218,218.224991 197.315811,218.074615 
	C189.994019,217.807404 182.655472,218.008591 175.324005,217.991837 
	C172.734634,217.985931 170.653046,217.688751 171.444672,214.044083 
	C177.134445,187.848495 182.718750,161.630005 188.372818,135.426620 
	C188.608810,134.332901 189.204193,133.316742 190.223877,130.809448 
	C195.367218,137.362839 199.934540,143.182327 204.748383,149.263763 
z"/>
<path fill="#F9FAFB" opacity="1.000000" stroke="none" 
	d="
M302.971832,289.944946 
	C304.412476,283.122986 305.826385,276.724701 307.475342,269.262604 
	C312.420654,274.211304 316.605652,278.373230 320.749390,282.575836 
	C321.321167,283.155731 321.529236,284.228302 322.174530,284.581329 
	C330.684631,289.236908 328.406616,296.224243 326.436615,303.278076 
	C325.414520,306.937897 324.581573,310.682159 324.071472,314.443665 
	C323.637360,317.644714 322.420013,319.144531 318.979492,319.055054 
	C311.862671,318.870026 304.737701,318.999298 296.646484,318.999298 
	C298.859283,308.940979 300.902161,299.654816 302.971832,289.944946 
z"/>
<path fill="#F9FAFB" opacity="1.000000" stroke="none" 
	d="
M263.041931,223.604401 
	C262.870331,223.338699 262.691223,222.826981 262.766266,222.344574 
	C263.024353,222.702057 263.029053,223.030212 263.041931,223.604401 
z"/>
</svg>